<?xml version="1.0" encoding="UTF-8" standalone="no"?>
<!-- Created for MapSVG plugin: http://mapsvg.com -->
<svg
   xmlns:mapsvg="http://mapsvg.com"
   xmlns:dc="http://purl.org/dc/elements/1.1/"
   xmlns:rdf="http://www.w3.org/1999/02/22-rdf-syntax-ns#"
   xmlns:svg="http://www.w3.org/2000/svg"
   xmlns="http://www.w3.org/2000/svg"
   mapsvg:geoViewBox="40.010579 43.584829 46.721888 41.064411"
   width="792.50702"
   height="401.40411">
 
 
  <path
     d="m 551.40122,300.69162 0.67,-1.82 0.7,-0.76 1.16,-0.61 1.41,-0.35 0.69,-0.38 0.27,-0.3 0.12,-0.43 -0.02,-0.62 -0.12,-0.47 -0.42,-0.87 -0.1,-0.63 0.06,-0.61 0.22,-0.36 0.91,-0.53 0.57,-0.12 0.74,0.11 1.59,0.78 0.36,0.1 0.35,-0.08 0.99,-0.45 1.01,-0.78 0.87,-0.46 0.39,-0.38 0.69,-1.35 0.26,-1.13 0.58,-1.26 0.52,-0.89 0.29,-0.23 0.38,-0.01 0.82,0.37 1.01,0.25 1.28,0.61 0.59,0.44 1.78,1.69 1.39,0.71 0.42,0.12 1.37,0.15 1.16,0.43 0,0 -0.7,1.06 -1.36,1.35 -0.74,0.58 -0.93,0.46 -0.59,0.5 -0.36,0.5 -0.09,0.56 0.1,0.39 0.17,0.21 1.84,0.95 0.58,0.52 0.37,0.49 1.28,2.64 0.09,0.78 0,2.23 0.12,0.44 0.34,0.43 0.99,0.56 1.13,0.83 2.53,1.24 0.94,0.14 2.13,0.01 0.47,-0.08 0.42,-0.19 1.02,-0.91 0.55,-0.72 0.84,-1.75 0.47,-0.48 0.75,-0.21 1.46,-0.03 0.57,0.08 0.3,0.27 0.02,0.37 -0.37,0.78 -0.24,1.46 -0.42,1.01 -0.24,1.61 -0.59,1.25 -0.55,0.9 -0.26,0.28 -0.91,0.54 -2.54,1.2 -0.76,0.16 -2.12,0.07 -1.52,0.52 -0.99,0.04 -0.81,-0.1 -6.1,-2.97 -0.98,-0.1 -3.03,0 -0.79,-0.15 -1.25,-0.89 -1.05,-0.6 -2.25,-2.18 -0.77,-0.47 -1.98,-0.16 -1.03,-0.42 -0.6,-0.12 -4.62,0.01 -0.58,-0.08 -0.31,-0.27 -0.03,-0.37 0.94,-2.29 0.05,-0.37 -0.09,-0.24 -0.27,-0.24 -0.79,-0.45 -1.06,-0.32 z"
     title="Tbilisi"
     id="GE-TB" />
</svg>
